<?xml version="1.0" encoding="utf-8"?>
<!-- Generator: Adobe Illustrator 16.0.0, SVG Export Plug-In . SVG Version: 6.00 Build 0)  -->
<!DOCTYPE svg PUBLIC "-//W3C//DTD SVG 1.1//EN" "http://www.w3.org/Graphics/SVG/1.1/DTD/svg11.dtd">
<svg version="1.1" id="Capa_1" xmlns="http://www.w3.org/2000/svg" xmlns:xlink="http://www.w3.org/1999/xlink" x="0px" y="0px"
	 width="512px" height="512px" viewBox="0 0 512 512" enable-background="new 0 0 512 512" xml:space="preserve">
<g>
	<g>
		<path fill="#FFFFFF" d="M499.5,436.209c0,21.044-17.061,38.104-38.104,38.104H48.604c-21.043,0-38.104-17.062-38.104-38.104
			V62.791c0-21.044,17.061-38.104,38.104-38.104h412.793c21.043,0,38.104,17.06,38.104,38.104V436.209z"/>
		<path d="M461.396,478.812H48.604C25.112,478.812,6,459.7,6,436.209V62.791c0-23.492,19.112-42.604,42.604-42.604h412.793
			c23.491,0,42.604,19.112,42.604,42.604v373.418C504,459.7,484.888,478.812,461.396,478.812z M48.604,29.187
			C30.075,29.187,15,44.262,15,62.791v373.418c0,18.529,15.075,33.604,33.604,33.604h412.793c18.529,0,33.604-15.074,33.604-33.604
			V62.791c0-18.529-15.074-33.604-33.604-33.604H48.604z"/>
	</g>
	<g>
		<path d="M153.148,356.363c0-2.785,2.785-5.172,5.57-5.172h6.366c3.183,0,5.968-2.785,5.968-5.97v-146.41
			c0-3.183-2.387-5.57-5.57-5.57l-5.569-0.398c-3.183,0-5.57-2.387-5.57-5.57l-0.796-18.301c0-3.183,2.387-5.968,5.57-5.968h45.753
			c3.183,0,5.968,2.387,5.968,5.57l3.184,176.647c0.397,3.185,2.784,5.569,5.968,5.569l4.773,0.397c2.785,0,5.57,2.388,5.57,5.569
			l0.397,18.302c0,3.58-2.784,5.969-5.968,5.969h-60.872c-3.58,0-12.332-2.784-12.332-6.365L153.148,356.363z M181.396,134.757
			c-15.118-1.194-19.893-6.366-20.688-19.495c-0.796-17.904,7.559-24.27,27.452-23.872c27.452,0.796,22.28,22.679,22.28,29.441
			C210.043,132.37,195.72,135.552,181.396,134.757z"/>
		<path d="M282.053,118.444h23.076c4.774,0.397,8.355,3.979,8.355,8.753l-0.398,28.646c0,4.774,3.979,8.753,8.355,8.753h22.278
			c4.774,0.398,8.355,3.979,8.355,8.753l-0.398,12.731c0.398,4.376-3.58,8.355-8.354,8.355l-20.688,0.397
			c-4.773,0-8.752,3.979-8.752,8.355c0,29.441,0.396,126.917,1.59,135.271c1.592,13.527,13.527,15.914,30.238,12.333
			c4.375-0.795,8.752,1.592,9.945,5.969c1.193,4.376,2.785,10.344,4.376,15.118c1.591,5.57-1.591,11.14-7.162,12.731
			c-25.86,6.365-56.894,8.354-66.442-5.57c-10.74-15.516-10.344-25.064-11.14-43.366c-0.397-6.764-0.397-103.841-0.796-132.884
			c0-4.376-3.581-8.355-7.957-8.355l-11.141-0.398c-4.375,0-8.354-3.581-8.354-8.355l-0.397-12.333c0-4.774,3.979-8.753,8.752-8.753
			h9.55c4.772,0,8.752-3.979,8.752-8.753l-0.397-28.646C273.3,122.423,276.881,118.444,282.053,118.444z"/>
	</g>
</g>
<g>
	<g>
		<path d="M751.148,356.363c0-2.785,2.785-5.172,5.57-5.172h6.366c3.183,0,5.968-2.785,5.968-5.97V198.812
			c0-3.184-2.387-5.57-5.57-5.57l-5.569-0.398c-3.183,0-5.57-2.387-5.57-5.57l-0.796-18.301c0-3.183,2.387-5.968,5.57-5.968h45.753
			c3.183,0,5.968,2.387,5.968,5.57l3.184,176.647c0.397,3.185,2.784,5.569,5.968,5.569l4.773,0.397c2.785,0,5.57,2.388,5.57,5.569
			l0.397,18.302c0,3.58-2.784,5.969-5.968,5.969h-60.872c-3.58,0-12.332-2.784-12.332-6.365L751.148,356.363z M779.396,134.757
			c-15.118-1.194-19.893-6.366-20.688-19.495c-0.796-17.904,7.559-24.27,27.452-23.872c27.452,0.796,22.28,22.679,22.28,29.441
			C808.043,132.37,793.72,135.552,779.396,134.757z"/>
		<path d="M880.053,118.444h23.076c4.774,0.397,8.355,3.979,8.355,8.753l-0.398,28.646c0,4.774,3.979,8.753,8.355,8.753h22.278
			c4.774,0.398,8.355,3.979,8.355,8.753l-0.398,12.731c0.398,4.376-3.58,8.355-8.354,8.355l-20.688,0.396
			c-4.773,0-8.752,3.979-8.752,8.355c0,29.44,0.396,126.916,1.59,135.271c1.592,13.527,13.527,15.914,30.238,12.333
			c4.375-0.795,8.752,1.592,9.945,5.969c1.193,4.376,2.785,10.344,4.376,15.118c1.591,5.57-1.591,11.14-7.162,12.731
			c-25.86,6.365-56.894,8.354-66.442-5.57c-10.74-15.516-10.344-25.064-11.14-43.366c-0.397-6.764-0.397-103.841-0.796-132.884
			c0-4.376-3.581-8.355-7.957-8.355l-11.141-0.397c-4.375,0-8.354-3.581-8.354-8.355l-0.397-12.333c0-4.774,3.979-8.753,8.752-8.753
			h9.55c4.772,0,8.752-3.979,8.752-8.753l-0.397-28.646C871.3,122.423,874.881,118.444,880.053,118.444z"/>
	</g>
	<circle fill="none" stroke="#000000" stroke-width="11" stroke-miterlimit="10" cx="854" cy="256" r="244.618"/>
</g>
</svg>
